PathFileType	4	(x/y/z)	S05_PSF_T02
DataRate	CameraRate	NumFrames	NumMarkers	Units	OrigDataRate	OrigDataStartFrame	OrigNumFrames
240	240	8	50	mm	240	56	442
Frame#	Time	Sternum			R.Acromium			L.Acromium			Top.Head			R.ASIS			L.ASIS			R.PSIS			L.PSIS			R.Great.Tro			L.Great.Tro			R.Iliac.Crest			L.Iliac.Crest			V.Sacral			R.Thigh.Upper.Post			R.Thigh.Lower.Ant			R.Thigh.Lower.Post			R.Thigh.Upper.Ant			R.Knee.Lat			R.Knee.Med			R.Shank.Upper.Post			R.Shank.Lower.Ant			R.Shank.Lower.Post			R.Shank.Upper.Ant			R.Ankle.Lat			R.Ankle.Med			R.Heel.Upper			R.Heel.Med			R.Heel.Lat			R.Toe.Lat			R.Toe.Med			R.Toe.Tip			L.Thigh.Upper.Post			L.Thigh.Lower.Ant			L.Thigh.Lower.Post			L.Thigh.Upper.Ant			L.Knee.Lat			L.Shank.Upper.Post			L.Shank.Lower.Ant			L.Shank.Lower.Post			L.Shank.Upper.Ant			L.Ankle.Lat			L.Ankle.Med			L.Heel.Upper			L.Heel.Med			L.Heel.Lat			L.Toe.Lat			L.Toe.Med			L.Toe.Tip			Cervical.Spine			Back			
		X1	Y1	Z1	X2	Y2	Z2	X3	Y3	Z3	X4	Y4	Z4	X5	Y5	Z5	X6	Y6	Z6	X7	Y7	Z7	X8	Y8	Z8	X9	Y9	Z9	X10	Y10	Z10	X11	Y11	Z11	X12	Y12	Z12	X13	Y13	Z13	X14	Y14	Z14	X15	Y15	Z15	X16	Y16	Z16	X17	Y17	Z17	X18	Y18	Z18	X19	Y19	Z19	X20	Y20	Z20	X21	Y21	Z21	X22	Y22	Z22	X23	Y23	Z23	X24	Y24	Z24	X25	Y25	Z25	X26	Y26	Z26	X27	Y27	Z27	X28	Y28	Z28	X29	Y29	Z29	X30	Y30	Z30	X31	Y31	Z31	X32	Y32	Z32	X33	Y33	Z33	X34	Y34	Z34	X35	Y35	Z35	X36	Y36	Z36	X37	Y37	Z37	X38	Y38	Z38	X39	Y39	Z39	X40	Y40	Z40	X41	Y41	Z41	X42	Y42	Z42	X43	Y43	Z43	X44	Y44	Z44	X45	Y45	Z45	X46	Y46	Z46	X47	Y47	Z47	X48	Y48	Z48	X49	Y49	Z49	X50	Y50	Z50	

56	0.22917	-1229.9	1247.7	297.52	-1334.5	1507.6	445.59	-1348.4	1514.3	115.43	-1339.2	1814.9	260.82	NaN	NaN	NaN	NaN	NaN	NaN	NaN	NaN	NaN	NaN	NaN	NaN	-1405.2	908.09	485.31	-1334	922.36	100.66	-1409.2	1079.6	459.86	-1359.9	1074.4	127.09	-1498	976.67	287.7	-1376.4	688.18	498.15	-1317.3	604.8	464.25	-1386.3	597.21	483.33	-1307.8	692.8	484.31	-1423.9	506.37	473.93	NaN	NaN	NaN	-1634.4	398.37	445.86	-1646	309.71	445.34	-1689.3	349.74	424.17	-1584.6	355.89	464.43	-1737.9	253.18	422	-1699	257.86	340.55	-1799.8	283.98	353.59	-1813.9	261.16	321.39	-1826.9	262.54	386.04	-1763.5	109.93	442.61	-1717.9	90.786	329.34	NaN	NaN	NaN	-1272.6	690.74	111.66	-1178.2	640.24	144.87	-1242.5	602.37	130.41	-1200.9	726.55	125.39	-1204.1	520.2	140.29	-1232.2	312.54	135.51	-1156.3	266.42	148.02	-1224.7	241.33	154.39	-1168.6	335.15	134.38	-1178.2	108.29	169.21	-1147.4	130.97	255.75	-1229.4	64.028	226.86	-1216.5	40.964	258.57	-1228	36.307	198.91	-1047.7	42.868	139.31	-1021.8	61.769	255.11	-961.82	77.227	198.25	-1390.5	1550.7	285.59	-1497.2	1273.2	294.66
57	0.23333	-1224.7	1248.1	296.97	-1328.3	1508.3	444.89	-1342.2	1514.9	114.79	-1333.4	1815.4	259.99	NaN	NaN	NaN	NaN	NaN	NaN	NaN	NaN	NaN	NaN	NaN	NaN	-1398.7	908.08	484.77	-1329	923.1	99.95	-1402.2	1079.6	459.49	-1354.6	1075	126.47	-1492.6	976.95	287.34	-1367.1	688.3	497.96	-1307	605.45	463.72	-1375.8	597.08	483.18	-1298.6	693.62	483.56	-1411	505.74	474	NaN	NaN	NaN	-1623.4	400.73	446.11	-1635.6	312.06	445.2	-1678.6	352.84	424.42	-1574.1	357.61	464.37	-1728.6	256.93	421.98	-1689.6	261.23	340.54	-1790.2	288.8	353.57	-1804.6	266.23	321.38	-1817.6	267.68	386.03	-1756.4	113.94	442.46	-1710.8	94.086	329.38	NaN	NaN	NaN	-1268.2	691.23	111.11	-1174	640.35	144.23	-1238.3	602.75	129.97	-1196.4	726.73	124.73	-1200.3	520.37	139.87	-1229.8	312.87	135.05	-1154.3	266.26	147.88	-1222.9	241.65	154.05	-1166.1	335.04	134.12	-1177.5	108.31	169.25	-1146.7	130.84	255.8	-1229.2	64.191	226.88	-1216.3	41.086	258.58	-1227.8	36.481	198.9	-1047.5	42.386	139.31	-1021.5	60.991	255.25	-961.37	75.958	198.4	-1384.5	1551.3	284.92	-1491.4	1273.9	294.12
58	0.2375	-1219.3	1248.5	296.42	-1322.1	1509	444.21	-1336.1	1515.5	114.19	-1327.6	1816	259.17	NaN	NaN	NaN	NaN	NaN	NaN	NaN	NaN	NaN	NaN	NaN	NaN	-1392.3	908.12	484.25	-1323.9	923.82	99.26	-1395.1	1079.6	459.14	-1349.4	1075.7	125.85	-1487.1	977.23	286.96	-1357.7	688.51	497.74	-1296.7	606.22	463.13	-1365.3	597.08	482.97	-1289.3	694.55	482.72	-1398.2	505.25	473.97	NaN	NaN	NaN	-1612.2	403.04	446.3	-1625.1	314.39	445.02	-1667.8	355.83	424.62	-1563.4	359.36	464.27	-1719.2	260.56	421.94	-1680.1	264.55	340.48	-1780.5	293.35	353.56	-1795.1	270.99	321.38	-1808.1	272.49	386.03	-1748.6	117.83	442.31	-1703.1	97.369	329.4	NaN	NaN	NaN	-1263.9	691.68	110.6	-1169.9	640.42	143.64	-1234.3	603.08	129.57	-1192	726.87	124.1	-1196.7	520.52	139.5	-1227.5	313.18	134.7	-1152.3	266.09	147.79	-1221.2	241.95	153.81	-1163.7	334.91	133.92	-1176.8	108.34	169.32	-1146.1	130.72	255.88	-1229	64.34	226.91	-1216.2	41.179	258.59	-1227.7	36.649	198.9	-1047.3	41.98	139.31	-1021.3	60.251	255.41	-960.96	74.781	198.56	-1378.5	1552	284.28	-1485.7	1274.7	293.58
59	0.24167	-1213.8	1248.9	295.88	-1315.9	1509.6	443.56	-1330	1516.1	113.6	-1321.8	1816.5	258.39	NaN	NaN	NaN	NaN	NaN	NaN	NaN	NaN	NaN	NaN	NaN	NaN	-1385.9	908.22	483.74	-1318.9	924.51	98.59	-1388	1079.6	458.83	-1344.2	1076.3	125.24	-1481.8	977.51	286.58	-1348.3	688.8	497.49	-1286.5	607.14	462.47	-1354.9	597.21	482.71	-1280	695.6	481.78	-1385.3	504.93	473.82	NaN	NaN	NaN	-1601	405.32	446.44	-1614.4	316.68	444.81	-1656.8	358.7	424.77	-1552.6	361.11	464.11	-1709.4	264.05	421.89	-1670.4	267.79	340.37	-1770.7	297.61	353.57	-1785.4	275.41	321.42	-1798.4	276.96	386.07	-1740.4	121.58	442.17	-1695	100.61	329.38	NaN	NaN	NaN	-1259.8	692.1	110.13	-1165.9	640.45	143.08	-1230.3	603.39	129.22	-1187.7	726.97	123.52	-1193.1	520.64	139.17	-1225.4	313.47	134.46	-1150.5	265.91	147.74	-1219.6	242.24	153.68	-1161.4	334.77	133.77	-1176.1	108.38	169.43	-1145.5	130.59	256	-1228.8	64.477	226.96	-1216.1	41.245	258.61	-1227.6	36.811	198.9	-1047.1	41.641	139.33	-1021	59.551	255.57	-960.58	73.695	198.74	-1372.5	1552.6	283.66	-1480.1	1275.4	293.02
60	0.24583	-1208.2	1249.3	295.35	-1309.7	1510.2	442.93	-1323.9	1516.8	113.04	-1316	1817.1	257.62	NaN	NaN	NaN	NaN	NaN	NaN	NaN	NaN	NaN	NaN	NaN	NaN	-1379.6	908.39	483.26	-1314	925.18	97.942	-1381	1079.6	458.54	-1338.9	1077	124.64	-1476.4	977.82	286.19	-1338.9	689.18	497.2	-1276.2	608.18	461.75	-1344.5	597.47	482.4	-1270.7	696.76	480.74	-1372.5	504.76	473.56	NaN	NaN	NaN	-1589.7	407.54	446.53	-1603.5	318.92	444.56	-1645.7	361.44	424.89	-1541.7	362.85	463.9	-1699.5	267.37	421.81	-1660.5	270.94	340.2	-1760.8	301.56	353.6	-1775.7	279.48	321.49	-1788.5	281.06	386.13	-1731.6	125.15	442.02	-1686.4	103.77	329.31	NaN	NaN	NaN	-1255.7	692.51	109.69	-1162	640.45	142.57	-1226.5	603.68	128.91	-1183.5	727.04	122.98	-1189.7	520.74	138.88	-1223.3	313.75	134.35	-1148.8	265.72	147.73	-1218.1	242.52	153.64	-1159.3	334.62	133.66	-1175.5	108.43	169.57	-1145	130.47	256.14	-1228.6	64.604	227.01	-1216	41.286	258.64	-1227.5	36.97	198.92	-1047	41.361	139.35	-1020.8	58.893	255.74	-960.24	72.697	198.93	-1366.6	1553.3	283.08	-1474.4	1276.2	292.45
61	0.25	-1202.6	1249.8	294.83	-1303.5	1510.9	442.33	-1317.8	1517.4	112.51	-1310.2	1817.7	256.88	NaN	NaN	NaN	NaN	NaN	NaN	NaN	NaN	NaN	NaN	NaN	NaN	-1373.3	908.63	482.79	-1309.1	925.84	97.316	-1374	1079.6	458.27	-1333.7	1077.6	124.04	-1471.1	978.14	285.8	-1329.5	689.65	496.89	-1266	609.37	460.98	-1334.1	597.85	482.05	-1261.4	698.04	479.6	-1359.7	504.77	473.2	NaN	NaN	NaN	-1578.4	409.68	446.56	-1592.5	321.08	444.28	-1634.4	364.02	424.96	-1530.7	364.57	463.63	-1689.3	270.5	421.71	-1650.4	273.97	339.99	-1750.8	305.2	353.65	-1765.8	283.2	321.57	-1778.5	284.8	386.22	-1722.4	128.51	441.87	-1677.3	106.83	329.2	NaN	NaN	NaN	-1251.7	692.9	109.29	-1158.2	640.42	142.1	-1222.8	603.95	128.64	-1179.4	727.09	122.47	-1186.5	520.82	138.63	-1221.5	314.02	134.34	-1147.2	265.52	147.76	-1216.7	242.79	153.7	-1157.3	334.46	133.6	-1174.9	108.5	169.74	-1144.5	130.35	256.31	-1228.5	64.721	227.08	-1215.9	41.306	258.67	-1227.4	37.125	198.94	-1046.8	41.132	139.38	-1020.6	58.275	255.9	-959.92	71.783	199.12	-1360.6	1554	282.53	-1468.8	1277.1	291.87
62	0.25417	-1197	1250.2	294.33	-1297.3	1511.5	441.75	-1311.8	1518	111.99	-1304.4	1818.4	256.17	NaN	NaN	NaN	NaN	NaN	NaN	NaN	NaN	NaN	NaN	NaN	NaN	-1367	908.93	482.35	-1304.2	926.49	96.713	-1367.1	1079.7	458.01	-1328.6	1078.2	123.46	-1465.9	978.5	285.41	-1320	690.2	496.55	-1255.9	610.7	460.15	-1323.7	598.37	481.67	-1252.1	699.45	478.37	-1347	504.95	472.74	NaN	NaN	NaN	-1567	411.74	446.53	-1581.4	323.16	443.97	-1623	366.45	424.99	-1519.5	366.26	463.32	-1678.9	273.42	421.6	-1640.1	276.86	339.74	-1740.6	308.49	353.71	-1755.7	286.54	321.68	-1768.3	288.15	386.33	-1712.6	131.63	441.7	-1667.7	109.76	329.04	NaN	NaN	NaN	-1247.8	693.28	108.93	-1154.5	640.38	141.66	-1219.2	604.21	128.39	-1175.4	727.12	122	-1183.3	520.88	138.4	-1219.7	314.29	134.43	-1145.8	265.32	147.8	-1215.4	243.06	153.85	-1155.4	334.3	133.57	-1174.3	108.57	169.92	-1144	130.23	256.49	-1228.3	64.83	227.15	-1215.9	41.309	258.7	-1227.3	37.277	198.96	-1046.7	40.947	139.4	-1020.4	57.698	256.06	-959.64	70.948	199.3	-1354.7	1554.7	281.99	-1463.3	1277.9	291.27
63	0.25833	-1191.3	1250.6	293.84	-1291.1	1512.1	441.2	-1305.8	1518.7	111.49	-1298.6	1819	255.48	-1261.3	990.81	431	NaN	NaN	NaN	NaN	NaN	NaN	NaN	NaN	NaN	-1360.9	909.3	481.93	-1299.4	927.14	96.135	-1360.4	1079.8	457.76	-1323.4	1078.8	122.89	-1460.7	978.91	285.04	-1310.6	690.83	496.18	-1245.7	612.17	459.26	-1313.4	599.01	481.25	-1242.8	700.98	477.06	-1334.4	505.3	472.19	NaN	NaN	NaN	-1555.5	413.71	446.45	-1570.2	325.15	443.65	-1611.5	368.71	424.99	-1508.2	367.89	462.96	-1668.3	276.12	421.48	-1629.7	279.59	339.45	-1730.3	311.44	353.79	-1745.5	289.5	321.81	-1757.9	291.12	386.47	-1702.4	134.5	441.52	-1657.7	112.53	328.84	NaN	NaN	NaN	-1243.9	693.66	108.59	-1150.9	640.33	141.26	-1215.7	604.47	128.16	-1171.4	727.14	121.56	-1180.3	520.93	138.2	-1218.1	314.55	134.61	-1144.4	265.12	147.86	-1214.3	243.31	154.07	-1153.7	334.14	133.56	-1173.8	108.65	170.12	-1143.5	130.13	256.68	-1228.2	64.932	227.23	-1215.8	41.298	258.74	-1227.2	37.427	198.99	-1046.6	40.798	139.43	-1020.3	57.161	256.22	-959.38	70.188	199.48	-1348.8	1555.5	281.49	-1457.7	1278.8	290.67
